<svg width="20" height="20" viewBox="0 0 20 20" fill="none" xmlns="http://www.w3.org/2000/svg">
<g clip-path="url(#clip0_2616_210)">
<mask id="mask0_2616_210" style="mask-type:luminance" maskUnits="userSpaceOnUse" x="0" y="2" width="20" height="16">
<path d="M18.5714 2.85712H1.42857C0.639593 2.85712 0 3.49671 0 4.28569V15.7143C0 16.5032 0.639593 17.1428 1.42857 17.1428H18.5714C19.3604 17.1428 20 16.5032 20 15.7143V4.28569C20 3.49671 19.3604 2.85712 18.5714 2.85712Z" fill="white"/>
</mask>
<g mask="url(#mask0_2616_210)">
<path d="M18.5713 3.03571H1.42847C0.738111 3.03571 0.178467 3.59535 0.178467 4.28571V15.7143C0.178467 16.4046 0.738111 16.9643 1.42847 16.9643H18.5713C19.2617 16.9643 19.8213 16.4046 19.8213 15.7143V4.28571C19.8213 3.59535 19.2617 3.03571 18.5713 3.03571Z" fill="white" stroke="#F5F5F5" stroke-width="14.2857"/>
<mask id="mask1_2616_210" style="mask-type:alpha" maskUnits="userSpaceOnUse" x="-7" y="-5" width="34" height="30">
<path d="M18.5713 3.03571H1.42847C0.738111 3.03571 0.178467 3.59535 0.178467 4.28571V15.7143C0.178467 16.4046 0.738111 16.9643 1.42847 16.9643H18.5713C19.2617 16.9643 19.8213 16.4046 19.8213 15.7143V4.28571C19.8213 3.59535 19.2617 3.03571 18.5713 3.03571Z" fill="white" stroke="white" stroke-width="14.2857"/>
</mask>
<g mask="url(#mask1_2616_210)">
<path fill-rule="evenodd" clip-rule="evenodd" d="M0 8.5714H8.57143V2.85712H0V8.5714Z" fill="#083D7A"/>
<path fill-rule="evenodd" clip-rule="evenodd" d="M11.4285 17.1428H19.9999V11.4285H11.4285V17.1428Z" fill="#083D7A"/>
<path fill-rule="evenodd" clip-rule="evenodd" d="M0 17.1428H8.57143V11.4285H0V17.1428Z" fill="#DF1E35"/>
<path fill-rule="evenodd" clip-rule="evenodd" d="M11.4285 8.5714H19.9999V2.85712H11.4285V8.5714Z" fill="#DF1E35"/>
<mask id="mask2_2616_210" style="mask-type:luminance" maskUnits="userSpaceOnUse" x="8" y="8" width="4" height="4">
<path fill-rule="evenodd" clip-rule="evenodd" d="M8.98993 8.98981C8.43207 9.5477 8.43207 10.4522 8.98993 11.0101C9.54785 11.568 10.4524 11.568 11.0103 11.0101C11.5681 10.4522 11.5681 9.5477 11.0103 8.98981" fill="white"/>
</mask>
<g mask="url(#mask2_2616_210)">
<path d="M8.65311 8.65308C7.90925 9.39693 7.90925 10.6029 8.65311 11.3468L9.32654 10.6734C8.95461 10.3014 8.95461 9.69844 9.32654 9.32651L8.65311 8.65308ZM8.65311 11.3468C9.39696 12.0907 10.603 12.0907 11.3469 11.3468L10.6735 10.6734C10.3015 11.0453 9.69847 11.0453 9.32654 10.6734L8.65311 11.3468ZM11.3469 11.3468C12.0908 10.6029 12.0908 9.39693 11.3469 8.65308L10.6735 9.32651C11.0454 9.69844 11.0454 10.3014 10.6735 10.6734L11.3469 11.3468Z" fill="#0F6D1A"/>
</g>
<path fill-rule="evenodd" clip-rule="evenodd" d="M10.0001 10.4762C10.2631 10.4762 10.4763 10.263 10.4763 9.99999C10.4763 9.737 10.2631 9.5238 10.0001 9.5238C9.73714 9.5238 9.52393 9.737 9.52393 9.99999C9.52393 10.263 9.73714 10.4762 10.0001 10.4762Z" fill="#042F60"/>
</g>
</g>
</g>
<defs>
<clipPath id="clip0_2616_210">
<rect width="20" height="20" fill="white"/>
</clipPath>
</defs>
</svg>
