<svg width="20" height="20" viewBox="0 0 20 20" fill="none" xmlns="http://www.w3.org/2000/svg">
<g clip-path="url(#clip0_2616_246)">
<mask id="mask0_2616_246" style="mask-type:luminance" maskUnits="userSpaceOnUse" x="0" y="2" width="20" height="16">
<path d="M18.5714 2.85712H1.42857C0.639593 2.85712 0 3.49671 0 4.28569V15.7143C0 16.5032 0.639593 17.1428 1.42857 17.1428H18.5714C19.3604 17.1428 20 16.5032 20 15.7143V4.28569C20 3.49671 19.3604 2.85712 18.5714 2.85712Z" fill="white"/>
</mask>
<g mask="url(#mask0_2616_246)">
<path d="M18.5714 2.85712H1.42857C0.639593 2.85712 0 3.49671 0 4.28569V15.7143C0 16.5032 0.639593 17.1428 1.42857 17.1428H18.5714C19.3604 17.1428 20 16.5032 20 15.7143V4.28569C20 3.49671 19.3604 2.85712 18.5714 2.85712Z" fill="white"/>
<mask id="mask1_2616_246" style="mask-type:alpha" maskUnits="userSpaceOnUse" x="0" y="2" width="20" height="16">
<path d="M18.5714 2.85712H1.42857C0.639593 2.85712 0 3.49671 0 4.28569V15.7143C0 16.5032 0.639593 17.1428 1.42857 17.1428H18.5714C19.3604 17.1428 20 16.5032 20 15.7143V4.28569C20 3.49671 19.3604 2.85712 18.5714 2.85712Z" fill="white"/>
</mask>
<g mask="url(#mask1_2616_246)">
<path fill-rule="evenodd" clip-rule="evenodd" d="M20 2.85712H9.52379V3.8095H20V2.85712ZM20 4.76188H9.52379V5.71426H20V4.76188ZM9.52379 6.66664H20V7.61902H9.52379V6.66664ZM20 8.5714H9.52379V9.52378H20V8.5714ZM0 10.4762H20V11.4285H0V10.4762ZM20 12.3809H0V13.3333H20V12.3809ZM0 14.2857H20V15.238H0V14.2857ZM20 16.1905H0V17.1428H20V16.1905Z" fill="#E1244A"/>
<path d="M11.4286 2.85712H0V10.4762H11.4286V2.85712Z" fill="#0C3F8E"/>
<path fill-rule="evenodd" clip-rule="evenodd" d="M4.76193 9.52379C5.43701 9.52379 6.0574 9.28967 6.54634 8.89819C6.28733 8.99479 6.00699 9.04761 5.71431 9.04761C4.39934 9.04761 3.33336 7.98162 3.33336 6.66665C3.33336 5.35169 4.39934 4.2857 5.71431 4.2857C6.00699 4.2857 6.28733 4.33851 6.54634 4.43512C6.0574 4.04364 5.43701 3.80951 4.76193 3.80951C3.18397 3.80951 1.90479 5.08869 1.90479 6.66665C1.90479 8.24461 3.18397 9.52379 4.76193 9.52379ZM6.79262 8.38279L7.6191 7.44761L8.44553 8.38279L8.22967 7.15357L9.4761 7.0905L8.38046 6.49287L9.10824 5.47905L7.95788 5.96304L7.6191 4.7619L7.28024 5.96304L6.12986 5.47905L6.8577 6.49287L5.76206 7.0905L7.00849 7.15357L6.79262 8.38279Z" fill="#FFD34F"/>
</g>
</g>
</g>
<defs>
<clipPath id="clip0_2616_246">
<rect width="20" height="20" fill="white"/>
</clipPath>
</defs>
</svg>
